<svg width="24" height="25" viewBox="0 0 24 25" fill="none" xmlns="http://www.w3.org/2000/svg">
<path d="M6.59998 10.5V13.5C6.59997 13.6555 6.56731 13.8089 6.50458 13.948L5.35798 16.5H18.6456L17.4972 13.948C17.4339 13.8091 17.4006 13.6557 17.4 13.5V10.5C17.4 8.9087 16.8311 7.38258 15.8184 6.25736C14.8057 5.13214 13.4322 4.5 12 4.5C10.5678 4.5 9.19431 5.13214 8.18161 6.25736C7.16891 7.38258 6.59998 8.9087 6.59998 10.5ZM8.39999 18.5H3.89997C3.7465 18.5 3.59557 18.4564 3.46154 18.3733C3.32751 18.2902 3.21483 18.1704 3.1342 18.0253C3.05357 17.8802 3.00768 17.7146 3.00088 17.5443C2.99409 17.3739 3.02661 17.2045 3.09537 17.052L4.79998 13.264V10.5C4.79998 8.37827 5.55855 6.34344 6.90881 4.84315C8.25908 3.34285 10.0904 2.5 12 2.5C13.9096 2.5 15.7409 3.34285 17.0912 4.84315C18.4415 6.34344 19.2 8.37827 19.2 10.5V13.264L20.9046 17.052C20.9734 17.2045 21.0059 17.3739 20.9991 17.5443C20.9923 17.7146 20.9464 17.8802 20.8658 18.0253C20.7852 18.1704 20.6725 18.2902 20.5385 18.3733C20.4044 18.4564 20.2535 18.5 20.1 18.5H15.6C15.6 19.5609 15.2207 20.5783 14.5456 21.3284C13.8705 22.0786 12.9548 22.5 12 22.5C11.0452 22.5 10.1295 22.0786 9.45441 21.3284C8.77927 20.5783 8.39999 19.5609 8.39999 18.5ZM13.8 18.5H10.2C10.2 19.0304 10.3896 19.5391 10.7272 19.9142C11.0648 20.2893 11.5226 20.5 12 20.5C12.4774 20.5 12.9352 20.2893 13.2728 19.9142C13.6104 19.5391 13.8 19.0304 13.8 18.5Z" fill="#121212"/>
</svg>
