<svg width="24" height="24" viewBox="0 0 24 24" fill="none" xmlns="http://www.w3.org/2000/svg">
<path fill-rule="evenodd" clip-rule="evenodd" d="M7.00001 3.80001C6.68175 3.80001 6.37653 3.92644 6.15148 4.15148C5.92644 4.37653 5.80001 4.68175 5.80001 5.00001V19.6215L11.6031 16.3054C11.849 16.1649 12.151 16.1649 12.3969 16.3054L18.2 19.6215V5.00001C18.2 4.68175 18.0736 4.37653 17.8485 4.15148C17.6235 3.92644 17.3183 3.80001 17 3.80001H7.00001ZM5.02011 3.02011C5.54522 2.49501 6.25741 2.20001 7.00001 2.20001H17C17.7426 2.20001 18.4548 2.49501 18.9799 3.02011C19.505 3.54521 19.8 4.25741 19.8 5.00001V21C19.8 21.2852 19.6482 21.5488 19.4016 21.6919C19.1549 21.8351 18.8507 21.8361 18.6031 21.6946L12 17.9214L5.39692 21.6946C5.14932 21.8361 4.84512 21.8351 4.59847 21.6919C4.35182 21.5488 4.20001 21.2852 4.20001 21V5.00001C4.20001 4.25741 4.49501 3.54522 5.02011 3.02011Z" fill="#818796"/>
</svg>
