<svg width="41" height="40" viewBox="0 0 41 40" fill="none" xmlns="http://www.w3.org/2000/svg">
<g clip-path="url(#clip0_4285_52090)">
<path d="M11.3708 15.246C11.2763 14.5535 11.753 13.8979 12.5469 13.6288L26.7762 8.69146C27.3792 8.48706 28.2853 8.91711 28.3694 9.44203L31.5596 28.1959C31.6761 28.9222 31.1612 29.6122 30.3126 29.867L15.078 33.2745C14.4732 33.4561 13.8112 33.1257 13.7405 32.6071L11.3708 15.246Z" fill="url(#paint0_linear_4285_52090)"/>
<path d="M27.8833 9.34526L27.8833 9.34526L27.8837 9.3478L31.0176 27.9359C31.1076 28.587 30.6511 29.2193 29.8642 29.4696L14.9348 33.0064L14.9347 33.0061L14.9283 33.0082C14.6492 33.0965 14.3539 33.0652 14.1206 32.952C13.8869 32.8386 13.7245 32.6483 13.6917 32.4243L11.1263 14.8994C11.0307 14.2463 11.4855 13.6098 12.2747 13.3572L26.6429 8.75851C26.9233 8.66878 27.2203 8.70006 27.4546 8.81396C27.6894 8.92812 27.8519 9.1198 27.8833 9.34526Z" fill="url(#paint1_linear_4285_52090)" stroke="url(#paint2_linear_4285_52090)" stroke-width="0.180426"/>
<path d="M11.1755 14.3664C11.0787 13.6983 11.4959 13.0551 12.2046 12.7796L24.9047 7.73224C25.443 7.52302 26.2644 7.9217 26.349 8.42782L29.5356 26.5068C29.6526 27.2072 29.2018 27.8844 28.4437 28.1471L14.8141 31.7339C14.2739 31.9211 13.6735 31.6142 13.601 31.1138L11.1755 14.3664Z" fill="url(#paint3_linear_4285_52090)"/>
<path d="M10.8626 14.1749C10.7558 13.4847 11.195 12.8194 11.937 12.5473L24.9455 7.77694C25.4949 7.57546 26.1172 7.88404 26.1929 8.3955L29.3715 26.5023C29.4735 27.1919 29.0315 27.8543 28.2895 28.1235L14.7482 31.8676C14.2012 32.0661 13.5832 31.7603 13.5046 31.2523L10.8626 14.1749Z" fill="url(#paint4_linear_4285_52090)"/>
<path d="M26.1483 8.40226L26.1483 8.40226L26.1485 8.40345L29.3268 26.509C29.3269 26.5092 29.3269 26.5094 29.3269 26.5096C29.4249 27.1736 29.0002 27.8169 28.2759 28.0805L14.7364 31.8241L14.7363 31.824L14.733 31.8252C14.2059 32.0165 13.6225 31.7186 13.5492 31.2452L10.9072 14.1679C10.8043 13.5027 11.2269 12.8557 11.9524 12.5896L24.9609 7.81928C25.2235 7.723 25.5035 7.74862 25.7267 7.85929C25.9499 7.96997 26.113 8.16381 26.1483 8.40226Z" stroke="url(#paint5_linear_4285_52090)" stroke-opacity="0.6" stroke-width="0.0902129"/>
<path d="M9.79119 13.683C9.67463 12.9529 10.0834 12.2374 10.7995 11.9179L23.6297 6.07065C24.1735 5.82798 25.0227 6.2448 25.1225 6.79761L28.3818 25.4729C28.5199 26.2379 28.0777 26.9915 27.3108 27.2982L13.9681 32.6344C13.4216 32.8529 12.8006 32.5313 12.7133 31.9845L9.79119 13.683Z" fill="url(#paint6_linear_4285_52090)"/>
<path d="M9.56005 13.3483C9.44194 12.6466 9.84043 11.9524 10.5452 11.6539L23.5174 6.15954C24.0183 5.94736 24.5862 6.24347 24.6653 6.73166L27.6751 25.3005C27.7887 26.0017 27.3874 26.693 26.6824 26.9885L13.8131 32.3841C13.3143 32.5933 12.7503 32.2999 12.6687 31.815L9.56005 13.3483Z" fill="url(#paint7_linear_4285_52090)" stroke="url(#paint8_linear_4285_52090)" stroke-width="0.180426"/>
<g filter="url(#filter0_d_4285_52090)">
<path d="M13.6948 13.9279C13.6236 13.4857 13.7134 13.1556 14.1588 12.9738L22.0083 9.52213C22.3381 9.38748 22.7977 9.59582 22.8484 9.9236L23.232 12.213C23.3004 12.655 23.0906 13.0405 22.6451 13.2205L14.84 16.504C14.5116 16.6367 14.0893 16.2989 14.0369 15.9733L13.6948 13.9279Z" fill="url(#paint9_linear_4285_52090)"/>
<g filter="url(#filter1_i_4285_52090)">
<path d="M13.6906 13.8014C13.6206 13.3728 13.7088 13.053 14.1464 12.8769L21.8949 9.5261C22.219 9.39567 22.6282 9.55164 22.6781 9.86924L23.0616 12.1408C23.1288 12.569 22.9228 12.9425 22.4851 13.1169L14.8162 16.2976C14.4935 16.4261 14.0807 16.2301 14.0291 15.9146L13.6906 13.8014Z" fill="url(#paint10_linear_4285_52090)"/>
</g>
<path d="M13.7351 13.7942L13.7351 13.794C13.7007 13.5836 13.7065 13.4066 13.7694 13.2625C13.8317 13.1201 13.9527 13.0034 14.1632 12.9187L14.1632 12.9187L14.1642 12.9183L21.9117 9.56794C21.9119 9.56787 21.9121 9.5678 21.9122 9.56774C22.0627 9.50737 22.2334 9.51333 22.3719 9.57127C22.5103 9.62922 22.6116 9.73663 22.6335 9.87629L22.6336 9.87681L23.017 12.1478C23.017 12.1479 23.0171 12.1479 23.0171 12.148C23.0492 12.3529 23.0157 12.5426 22.9237 12.7014C22.8315 12.8603 22.6791 12.9911 22.4684 13.075L22.4678 13.0752L14.7996 16.2557C14.7995 16.2557 14.7994 16.2557 14.7993 16.2558C14.6513 16.3146 14.4808 16.2996 14.3406 16.2319C14.2002 16.1642 14.0965 16.0469 14.0737 15.9073C14.0737 15.9073 14.0737 15.9073 14.0737 15.9073L13.7351 13.7942Z" stroke="url(#paint11_linear_4285_52090)" stroke-opacity="0.4" stroke-width="0.0902129"/>
</g>
<ellipse cx="0.76015" cy="0.802472" rx="0.76015" ry="0.802472" transform="matrix(0.954931 0.296829 -0.338845 0.940842 10.8662 14.0757)" fill="url(#paint12_linear_4285_52090)"/>
<ellipse cx="0.546992" cy="0.711228" rx="0.546992" ry="0.711228" transform="matrix(0.954931 0.296829 -0.338845 0.940842 11.2373 14.2897)" fill="url(#paint13_linear_4285_52090)"/>
<ellipse cx="0.76015" cy="0.802472" rx="0.76015" ry="0.802472" transform="matrix(0.954931 0.296829 -0.338845 0.940842 11.6653 18.2906)" fill="url(#paint14_linear_4285_52090)"/>
<ellipse cx="0.546992" cy="0.711228" rx="0.546992" ry="0.711228" transform="matrix(0.954931 0.296829 -0.338845 0.940842 12.0364 18.5047)" fill="url(#paint15_linear_4285_52090)"/>
<ellipse cx="0.76015" cy="0.802472" rx="0.76015" ry="0.802472" transform="matrix(0.954931 0.296829 -0.338845 0.940842 12.4768 23.0289)" fill="url(#paint16_linear_4285_52090)"/>
<ellipse cx="0.546992" cy="0.711228" rx="0.546992" ry="0.711228" transform="matrix(0.954931 0.296829 -0.338845 0.940842 12.8479 23.2429)" fill="url(#paint17_linear_4285_52090)"/>
<ellipse cx="0.76015" cy="0.802472" rx="0.76015" ry="0.802472" transform="matrix(0.954931 0.296829 -0.338845 0.940842 13.2764 27.767)" fill="url(#paint18_linear_4285_52090)"/>
<ellipse cx="0.546992" cy="0.711228" rx="0.546992" ry="0.711228" transform="matrix(0.954931 0.296829 -0.338845 0.940842 13.6475 27.9811)" fill="url(#paint19_linear_4285_52090)"/>
<g filter="url(#filter2_i_4285_52090)">
<path d="M11.1892 15.8504C11.5471 15.9098 11.9185 15.6789 12.0507 15.2971C12.1029 15.1465 12.1107 14.9929 12.0812 14.8523L12.0769 14.8391C12.0422 14.828 12.0058 14.8179 11.969 14.8085L11.9296 14.7988C11.8685 14.7842 11.8072 14.7714 11.7508 14.7596L11.6856 14.7459C11.5709 14.7212 11.3155 14.6864 11.1362 14.6698C11.0266 14.6597 10.8974 14.6536 10.7584 14.6558C10.7058 14.6567 10.6517 14.6588 10.597 14.6621C10.5166 14.667 10.4342 14.6747 10.3522 14.6857C10.0319 14.7287 9.83434 14.7943 9.52248 14.9699C9.21042 15.1455 8.97839 15.3726 8.85089 15.627C8.72338 15.8814 8.7055 16.1534 8.79895 16.4139C8.8924 16.6744 9.1208 16.9288 9.31175 17.0933C9.5027 17.2577 9.78579 17.4272 10.1775 17.5194L10.0855 16.9338L10.0174 16.4997C10.0174 16.1501 10.4849 15.827 10.9489 15.827C11.0324 15.827 11.113 15.8362 11.1892 15.8533V15.8504Z" fill="url(#paint20_radial_4285_52090)"/>
</g>
<g filter="url(#filter3_i_4285_52090)">
<path d="M11.9924 20.0536C12.3479 20.113 12.7169 19.8821 12.8482 19.5003C12.9 19.3496 12.9079 19.1961 12.8785 19.0555L12.8742 19.0423C12.8398 19.0312 12.8036 19.0211 12.767 19.0117L12.7279 19.002C12.6672 18.9874 12.6063 18.9746 12.5503 18.9628L12.4856 18.9491C12.3716 18.9244 12.1178 18.8895 11.9398 18.873C11.8309 18.8628 11.7025 18.8568 11.5644 18.8589C11.5122 18.8599 11.4585 18.8619 11.4041 18.8653C11.3242 18.8702 11.2424 18.8779 11.161 18.8889C10.8427 18.9318 10.6465 18.9975 10.3367 19.1731C10.0267 19.3486 9.79616 19.5758 9.66949 19.8302C9.54282 20.0846 9.52506 20.3566 9.61789 20.617C9.71073 20.8775 9.90031 21.1118 10.1016 21.274C10.3028 21.4362 10.4687 21.5283 10.8695 21.6368L10.7781 21.0512L10.7104 20.617C10.7104 20.2674 11.2927 20.0302 11.7537 20.0302C11.8366 20.0302 11.9167 20.0394 11.9924 20.0565V20.0536Z" fill="url(#paint21_radial_4285_52090)"/>
</g>
<g filter="url(#filter4_i_4285_52090)">
<path d="M12.8096 24.7915C13.1645 24.8509 13.5328 24.62 13.6639 24.2382C13.7157 24.0876 13.7235 23.934 13.6941 23.7935L13.6899 23.7802C13.6555 23.7691 13.6194 23.759 13.5829 23.7496L13.5438 23.7399C13.4832 23.7253 13.4224 23.7125 13.3665 23.7007L13.3019 23.687C13.1881 23.6623 12.9348 23.6275 12.7571 23.6109C12.6483 23.6008 12.5202 23.5947 12.3823 23.5969C12.3302 23.5978 12.2766 23.5999 12.2223 23.6032C12.1425 23.6081 12.0608 23.6158 11.9796 23.6268C11.6619 23.6698 11.4637 23.7094 11.1545 23.8849C10.845 24.0605 10.6879 24.2118 10.5517 24.4284C10.4155 24.645 10.3269 25.0572 10.438 25.3676C10.5307 25.6281 10.7317 25.8656 10.8982 26.0098C11.0648 26.154 11.2877 26.3518 11.6833 26.4802L11.5921 25.8947L11.5246 25.4605C11.5246 25.1109 12.1111 24.7681 12.5713 24.7681C12.654 24.7681 12.734 24.7773 12.8096 24.7944V24.7915Z" fill="url(#paint22_radial_4285_52090)"/>
</g>
<g filter="url(#filter5_i_4285_52090)">
<path d="M13.6642 29.5448C13.9975 29.6043 14.3435 29.3734 14.4666 28.9916C14.5152 28.8409 14.5225 28.6874 14.495 28.5468L14.491 28.5335C14.4587 28.5225 14.4248 28.5124 14.3905 28.503L14.3538 28.4933C14.2969 28.4787 14.2398 28.4658 14.1873 28.454L14.1266 28.4403C14.0197 28.4156 13.7818 28.3808 13.6149 28.3642C13.5128 28.3541 13.3924 28.3481 13.263 28.3502C13.214 28.3512 13.1636 28.3532 13.1127 28.3566C13.0377 28.3615 12.961 28.3692 12.8847 28.3802C12.5863 28.4231 12.3956 28.4519 12.1051 28.6275C11.8145 28.8031 11.6631 28.9353 11.5444 29.1896C11.4256 29.444 11.3589 29.8112 11.4459 30.0717C11.5329 30.3322 11.6671 30.5333 11.8294 30.7084C11.9918 30.8835 12.1359 31.0101 12.474 31.1776L12.3884 30.5921L12.325 30.1579C12.325 29.8083 13.0082 29.5215 13.4404 29.5215C13.5181 29.5215 13.5933 29.5307 13.6642 29.5477V29.5448Z" fill="url(#paint23_radial_4285_52090)"/>
</g>
</g>
<defs>
<filter id="filter0_d_4285_52090" x="12.2692" y="8.47998" width="11.9754" height="9.45359" filterUnits="userSpaceOnUse" color-interpolation-filters="sRGB">
<feFlood flood-opacity="0" result="BackgroundImageFix"/>
<feColorMatrix in="SourceAlpha" type="matrix" values="0 0 0 0 0 0 0 0 0 0 0 0 0 0 0 0 0 0 127 0" result="hardAlpha"/>
<feOffset dx="-0.2" dy="0.2"/>
<feGaussianBlur stdDeviation="0.6"/>
<feComposite in2="hardAlpha" operator="out"/>
<feColorMatrix type="matrix" values="0 0 0 0 0.374571 0 0 0 0 0.400459 0 0 0 0 0.469092 0 0 0 0.3 0"/>
<feBlend mode="normal" in2="BackgroundImageFix" result="effect1_dropShadow_4285_52090"/>
<feBlend mode="normal" in="SourceGraphic" in2="effect1_dropShadow_4285_52090" result="shape"/>
</filter>
<filter id="filter1_i_4285_52090" x="12.7671" y="8.57785" width="10.3069" height="7.75967" filterUnits="userSpaceOnUse" color-interpolation-filters="sRGB">
<feFlood flood-opacity="0" result="BackgroundImageFix"/>
<feBlend mode="normal" in="SourceGraphic" in2="BackgroundImageFix" result="shape"/>
<feColorMatrix in="SourceAlpha" type="matrix" values="0 0 0 0 0 0 0 0 0 0 0 0 0 0 0 0 0 0 127 0" result="hardAlpha"/>
<feOffset dx="-0.902129" dy="-0.902129"/>
<feGaussianBlur stdDeviation="0.902129"/>
<feComposite in2="hardAlpha" operator="arithmetic" k2="-1" k3="1"/>
<feColorMatrix type="matrix" values="0 0 0 0 0.210388 0 0 0 0 0.220342 0 0 0 0 0.255632 0 0 0 0.08 0"/>
<feBlend mode="normal" in2="shape" result="effect1_innerShadow_4285_52090"/>
</filter>
<filter id="filter2_i_4285_52090" x="8.73999" y="14.6553" width="3.3584" height="3.0445" filterUnits="userSpaceOnUse" color-interpolation-filters="sRGB">
<feFlood flood-opacity="0" result="BackgroundImageFix"/>
<feBlend mode="normal" in="SourceGraphic" in2="BackgroundImageFix" result="shape"/>
<feColorMatrix in="SourceAlpha" type="matrix" values="0 0 0 0 0 0 0 0 0 0 0 0 0 0 0 0 0 0 127 0" result="hardAlpha"/>
<feOffset dy="0.180426"/>
<feGaussianBlur stdDeviation="0.451064"/>
<feComposite in2="hardAlpha" operator="arithmetic" k2="-1" k3="1"/>
<feColorMatrix type="matrix" values="0 0 0 0 0.359114 0 0 0 0 0.391069 0 0 0 0 0.678662 0 0 0 0.34 0"/>
<feBlend mode="normal" in2="shape" result="effect1_innerShadow_4285_52090"/>
</filter>
<filter id="filter3_i_4285_52090" x="9.55933" y="18.8585" width="3.33618" height="2.95869" filterUnits="userSpaceOnUse" color-interpolation-filters="sRGB">
<feFlood flood-opacity="0" result="BackgroundImageFix"/>
<feBlend mode="normal" in="SourceGraphic" in2="BackgroundImageFix" result="shape"/>
<feColorMatrix in="SourceAlpha" type="matrix" values="0 0 0 0 0 0 0 0 0 0 0 0 0 0 0 0 0 0 127 0" result="hardAlpha"/>
<feOffset dy="0.180426"/>
<feGaussianBlur stdDeviation="0.451064"/>
<feComposite in2="hardAlpha" operator="arithmetic" k2="-1" k3="1"/>
<feColorMatrix type="matrix" values="0 0 0 0 0.359114 0 0 0 0 0.391069 0 0 0 0 0.678662 0 0 0 0.34 0"/>
<feBlend mode="normal" in2="shape" result="effect1_innerShadow_4285_52090"/>
</filter>
<filter id="filter4_i_4285_52090" x="10.3877" y="23.5964" width="3.32349" height="3.06421" filterUnits="userSpaceOnUse" color-interpolation-filters="sRGB">
<feFlood flood-opacity="0" result="BackgroundImageFix"/>
<feBlend mode="normal" in="SourceGraphic" in2="BackgroundImageFix" result="shape"/>
<feColorMatrix in="SourceAlpha" type="matrix" values="0 0 0 0 0 0 0 0 0 0 0 0 0 0 0 0 0 0 127 0" result="hardAlpha"/>
<feOffset dy="0.180426"/>
<feGaussianBlur stdDeviation="0.451064"/>
<feComposite in2="hardAlpha" operator="arithmetic" k2="-1" k3="1"/>
<feColorMatrix type="matrix" values="0 0 0 0 0.359114 0 0 0 0 0.391069 0 0 0 0 0.678662 0 0 0 0.34 0"/>
<feBlend mode="normal" in2="shape" result="effect1_innerShadow_4285_52090"/>
</filter>
<filter id="filter5_i_4285_52090" x="11.4062" y="28.3498" width="3.10474" height="3.00825" filterUnits="userSpaceOnUse" color-interpolation-filters="sRGB">
<feFlood flood-opacity="0" result="BackgroundImageFix"/>
<feBlend mode="normal" in="SourceGraphic" in2="BackgroundImageFix" result="shape"/>
<feColorMatrix in="SourceAlpha" type="matrix" values="0 0 0 0 0 0 0 0 0 0 0 0 0 0 0 0 0 0 127 0" result="hardAlpha"/>
<feOffset dy="0.180426"/>
<feGaussianBlur stdDeviation="0.451064"/>
<feComposite in2="hardAlpha" operator="arithmetic" k2="-1" k3="1"/>
<feColorMatrix type="matrix" values="0 0 0 0 0.359114 0 0 0 0 0.391069 0 0 0 0 0.678662 0 0 0 0.34 0"/>
<feBlend mode="normal" in2="shape" result="effect1_innerShadow_4285_52090"/>
</filter>
<linearGradient id="paint0_linear_4285_52090" x1="19.9478" y1="10.5315" x2="21.7035" y2="31.1812" gradientUnits="userSpaceOnUse">
<stop stop-color="#B2BBD2"/>
<stop offset="0.990723" stop-color="#969FB9"/>
</linearGradient>
<linearGradient id="paint1_linear_4285_52090" x1="11.3966" y1="13.3042" x2="26.4951" y2="31.1188" gradientUnits="userSpaceOnUse">
<stop stop-color="#CAD1E2"/>
<stop offset="1" stop-color="#A2ABC3"/>
</linearGradient>
<linearGradient id="paint2_linear_4285_52090" x1="11.2598" y1="13.8075" x2="26.6457" y2="31.3037" gradientUnits="userSpaceOnUse">
<stop stop-color="#D2D8E8" stop-opacity="0"/>
<stop offset="0.0001" stop-color="#9FA8C3" stop-opacity="0"/>
<stop offset="1" stop-color="#A2ACC6"/>
</linearGradient>
<linearGradient id="paint3_linear_4285_52090" x1="16.7388" y1="9.97735" x2="27.5992" y2="28.8985" gradientUnits="userSpaceOnUse">
<stop stop-color="#FAFDFF"/>
<stop offset="0.853195" stop-color="#E1E8F2"/>
<stop offset="0.928584" stop-color="#F1F7FF"/>
<stop offset="1" stop-color="#CDD6E3"/>
</linearGradient>
<linearGradient id="paint4_linear_4285_52090" x1="11.1622" y1="12.5957" x2="26.3482" y2="28.6542" gradientUnits="userSpaceOnUse">
<stop stop-color="#F2F8FD"/>
<stop offset="1" stop-color="#EBF0F7"/>
</linearGradient>
<linearGradient id="paint5_linear_4285_52090" x1="11.0464" y1="13.0902" x2="26.469" y2="28.8116" gradientUnits="userSpaceOnUse">
<stop stop-color="white" stop-opacity="0"/>
<stop offset="1" stop-color="#E6F0FF"/>
</linearGradient>
<linearGradient id="paint6_linear_4285_52090" x1="17.4498" y1="8.31556" x2="20.619" y2="30.0322" gradientUnits="userSpaceOnUse">
<stop stop-color="#ECF3FF"/>
<stop offset="0.791667" stop-color="#A4AEC8"/>
<stop offset="0.990723" stop-color="#95A0BE"/>
</linearGradient>
<linearGradient id="paint7_linear_4285_52090" x1="9.73127" y1="11.6423" x2="26.6247" y2="27.4325" gradientUnits="userSpaceOnUse">
<stop offset="0.0001" stop-color="#D8DDEC"/>
<stop offset="1" stop-color="#ABB3CA"/>
</linearGradient>
<linearGradient id="paint8_linear_4285_52090" x1="9.62763" y1="12.1817" x2="26.723" y2="27.5835" gradientUnits="userSpaceOnUse">
<stop stop-color="#E7EEFF" stop-opacity="0"/>
<stop offset="1" stop-color="#98A2C0"/>
</linearGradient>
<linearGradient id="paint9_linear_4285_52090" x1="18.5421" y1="10.9656" x2="19.1001" y2="14.7557" gradientUnits="userSpaceOnUse">
<stop stop-color="#E4E7EB"/>
<stop offset="0.857093" stop-color="#E8E8E9"/>
<stop offset="1" stop-color="#D7DADE"/>
</linearGradient>
<linearGradient id="paint10_linear_4285_52090" x1="13.9281" y1="14.8404" x2="23.0471" y2="11.5711" gradientUnits="userSpaceOnUse">
<stop stop-color="white"/>
<stop offset="1" stop-color="#E8ECF1"/>
</linearGradient>
<linearGradient id="paint11_linear_4285_52090" x1="13.6842" y1="13.04" x2="23.0325" y2="13.2597" gradientUnits="userSpaceOnUse">
<stop stop-color="white" stop-opacity="0"/>
<stop offset="1" stop-color="#DCDFE2" stop-opacity="0.65"/>
</linearGradient>
<linearGradient id="paint12_linear_4285_52090" x1="-0.129799" y1="0.760719" x2="1.47787" y2="1.14305" gradientUnits="userSpaceOnUse">
<stop/>
<stop offset="0.760417" stop-color="#131B37"/>
<stop offset="1"/>
</linearGradient>
<linearGradient id="paint13_linear_4285_52090" x1="0.546992" y1="0" x2="0.546992" y2="1.42246" gradientUnits="userSpaceOnUse">
<stop stop-color="#173086"/>
<stop offset="1" stop-color="#14329D" stop-opacity="0"/>
</linearGradient>
<linearGradient id="paint14_linear_4285_52090" x1="-0.129799" y1="0.760719" x2="1.47787" y2="1.14305" gradientUnits="userSpaceOnUse">
<stop/>
<stop offset="0.760417" stop-color="#131B37"/>
<stop offset="1"/>
</linearGradient>
<linearGradient id="paint15_linear_4285_52090" x1="0.546992" y1="0" x2="0.546992" y2="1.42246" gradientUnits="userSpaceOnUse">
<stop stop-color="#173086"/>
<stop offset="1" stop-color="#14329D" stop-opacity="0"/>
</linearGradient>
<linearGradient id="paint16_linear_4285_52090" x1="-0.129799" y1="0.760719" x2="1.47787" y2="1.14305" gradientUnits="userSpaceOnUse">
<stop/>
<stop offset="0.760417" stop-color="#131B37"/>
<stop offset="1"/>
</linearGradient>
<linearGradient id="paint17_linear_4285_52090" x1="0.546992" y1="0" x2="0.546992" y2="1.42246" gradientUnits="userSpaceOnUse">
<stop stop-color="#173086"/>
<stop offset="1" stop-color="#14329D" stop-opacity="0"/>
</linearGradient>
<linearGradient id="paint18_linear_4285_52090" x1="-0.129799" y1="0.760719" x2="1.47787" y2="1.14305" gradientUnits="userSpaceOnUse">
<stop/>
<stop offset="0.760417" stop-color="#131B37"/>
<stop offset="1"/>
</linearGradient>
<linearGradient id="paint19_linear_4285_52090" x1="0.546992" y1="0" x2="0.546992" y2="1.42246" gradientUnits="userSpaceOnUse">
<stop stop-color="#173086"/>
<stop offset="1" stop-color="#14329D" stop-opacity="0"/>
</linearGradient>
<radialGradient id="paint20_radial_4285_52090" cx="0" cy="0" r="1" gradientUnits="userSpaceOnUse" gradientTransform="translate(10.9825 14.9472) rotate(109.303) scale(2.70966 3.17031)">
<stop stop-color="white"/>
<stop offset="1" stop-color="#D9D9D9"/>
</radialGradient>
<radialGradient id="paint21_radial_4285_52090" cx="0" cy="0" r="1" gradientUnits="userSpaceOnUse" gradientTransform="translate(11.7871 19.1504) rotate(109.185) scale(2.70771 3.15169)">
<stop stop-color="white"/>
<stop offset="1" stop-color="#D9D9D9"/>
</radialGradient>
<radialGradient id="paint22_radial_4285_52090" cx="0" cy="0" r="1" gradientUnits="userSpaceOnUse" gradientTransform="translate(12.6039 23.8883) rotate(109.155) scale(2.70721 3.14684)">
<stop stop-color="white"/>
<stop offset="1" stop-color="#D9D9D9"/>
</radialGradient>
<radialGradient id="paint23_radial_4285_52090" cx="0" cy="0" r="1" gradientUnits="userSpaceOnUse" gradientTransform="translate(13.4718 28.6416) rotate(108.068) scale(2.68997 2.97447)">
<stop stop-color="white"/>
<stop offset="1" stop-color="#D9D9D9"/>
</radialGradient>
<clipPath id="clip0_4285_52090">
<rect width="40" height="40" fill="white" transform="translate(0.619629)"/>
</clipPath>
</defs>
</svg>
