<svg width="41" height="40" viewBox="0 0 41 40" fill="none" xmlns="http://www.w3.org/2000/svg">
<g clip-path="url(#clip0_4285_61745)">
<path d="M10.8949 10C9.61439 10 8.57617 11.0381 8.57617 12.3187V27.6813C8.57617 28.9619 9.61439 30 10.8949 30H29.724C31.0045 30 32.0427 28.9619 32.0427 27.6813V14.9425C32.0427 13.6619 31.0045 12.6238 29.724 12.6238H19.9879L18.4689 10.8235C18.0283 10.3013 17.3799 10 16.6966 10H10.8949Z" fill="url(#paint0_linear_4285_61745)"/>
<rect x="10.3389" y="14.2084" width="19.9398" height="15.7918" rx="1.84445" fill="url(#paint1_linear_4285_61745)"/>
<rect x="8.57617" y="15.9845" width="23.4666" height="14.0154" rx="2.76668" fill="url(#paint2_linear_4285_61745)"/>
</g>
<defs>
<linearGradient id="paint0_linear_4285_61745" x1="20.3095" y1="9.44773" x2="20.3095" y2="30" gradientUnits="userSpaceOnUse">
<stop stop-color="#A6C9F1"/>
<stop offset="0.0260417" stop-color="#82B6FD"/>
<stop offset="0.0625" stop-color="#477EFF"/>
<stop offset="0.510417" stop-color="#3972FC"/>
<stop offset="1" stop-color="#365FD5"/>
</linearGradient>
<linearGradient id="paint1_linear_4285_61745" x1="20.3088" y1="13.6924" x2="20.3088" y2="30.0001" gradientUnits="userSpaceOnUse">
<stop stop-color="#F8FDFC"/>
<stop offset="0.0260417" stop-color="#F4F9FC"/>
<stop offset="0.59375" stop-color="#D7E7FB"/>
<stop offset="1" stop-color="#D8E3FD"/>
</linearGradient>
<linearGradient id="paint2_linear_4285_61745" x1="20.3095" y1="15.5266" x2="20.3095" y2="29.9999" gradientUnits="userSpaceOnUse">
<stop stop-color="#A8DBFF"/>
<stop offset="0.0260417" stop-color="#9CC8FF"/>
<stop offset="0.0677083" stop-color="#5585FF"/>
<stop offset="0.453125" stop-color="#3E73FF"/>
<stop offset="1" stop-color="#4267D8"/>
</linearGradient>
<clipPath id="clip0_4285_61745">
<rect width="40" height="40" fill="white" transform="translate(0.30957)"/>
</clipPath>
</defs>
</svg>
