<svg width="20" height="20" viewBox="0 0 20 20" fill="none" xmlns="http://www.w3.org/2000/svg">
<path fill-rule="evenodd" clip-rule="evenodd" d="M8.14854 17.4073H11.8519C14.4527 17.4073 15.7535 17.4073 16.6877 16.8024C17.0908 16.5415 17.4379 16.2048 17.7094 15.8115C18.3335 14.9061 18.3335 13.6444 18.3335 11.1226C18.3335 8.59996 18.3335 7.33906 17.7094 6.43371C17.4379 6.04039 17.0908 5.70367 16.6877 5.44277C16.0877 5.05347 15.336 4.91437 14.1852 4.86499C13.636 4.86499 13.1635 4.4617 13.056 3.93907C12.9739 3.55624 12.7604 3.21317 12.4517 2.96783C12.1431 2.7225 11.7581 2.58994 11.3619 2.59257H8.63854C7.8152 2.59257 7.10604 3.15635 6.94437 3.93907C6.83687 4.4617 6.36437 4.86499 5.8152 4.86499C4.6652 4.91437 3.91354 5.05429 3.3127 5.44277C2.90989 5.70372 2.56302 6.04044 2.29187 6.43371C1.66687 7.33906 1.66687 8.59996 1.66687 11.1226C1.66687 13.6444 1.66687 14.9053 2.29104 15.8115C2.56104 16.2032 2.9077 16.5399 3.3127 16.8024C4.24687 17.4073 5.5477 17.4073 8.14854 17.4073ZM10.0002 7.75552C8.0827 7.75552 6.5277 9.26251 6.5277 11.1218C6.5277 12.9818 8.0827 14.4888 10.0002 14.4888C11.9177 14.4888 13.4727 12.9818 13.4727 11.1226C13.4727 9.26251 11.9177 7.75552 10.0002 7.75552ZM10.0002 9.10202C8.8502 9.10202 7.91687 10.0065 7.91687 11.1226C7.91687 12.2378 8.8502 13.1423 10.0002 13.1423C11.1502 13.1423 12.0835 12.2378 12.0835 11.1226C12.0835 10.0065 11.1502 9.10202 10.0002 9.10202ZM13.9352 8.42877C13.9352 8.05675 14.246 7.75552 14.6302 7.75552H15.5552C15.9385 7.75552 16.2502 8.05675 16.2502 8.42877C16.2484 8.60893 16.1743 8.78103 16.0442 8.90727C15.914 9.03351 15.7385 9.10355 15.556 9.10202H14.6302C14.5398 9.10289 14.4501 9.08616 14.3663 9.0528C14.2824 9.01943 14.2061 8.97008 14.1415 8.90756C14.077 8.84505 14.0255 8.77058 13.9901 8.68843C13.9547 8.60628 13.9361 8.51804 13.9352 8.42877Z" fill="#A6AEB7"/>
</svg>
