<svg width="16" height="16" viewBox="0 0 16 16" fill="current" xmlns="http://www.w3.org/2000/svg">
<path d="M11.9635 4.47217C12.1553 4.47217 12.3334 4.50642 12.4979 4.57493C12.6623 4.64344 12.8084 4.74163 12.9363 4.86951C13.0642 4.99739 13.1601 5.14126 13.224 5.30111C13.288 5.46096 13.3245 5.64137 13.3337 5.84232C13.3337 6.02501 13.2994 6.20085 13.2309 6.36983C13.1624 6.53882 13.0642 6.68725 12.9363 6.81514L7.49679 12.2615C7.36891 12.3894 7.22048 12.4876 7.05149 12.5561C6.88251 12.6246 6.70667 12.6611 6.52398 12.6657C6.34129 12.6657 6.16546 12.6314 5.99647 12.5629C5.82749 12.4944 5.67905 12.394 5.55117 12.2615L3.07119 9.78152C2.94331 9.65364 2.84511 9.50521 2.7766 9.33622C2.7081 9.16724 2.67156 8.9914 2.66699 8.80871C2.66699 8.61689 2.70353 8.43877 2.7766 8.27435C2.84968 8.10993 2.94787 7.96378 3.07119 7.8359C3.1945 7.70802 3.33837 7.61211 3.50279 7.54817C3.66721 7.48423 3.84761 7.44769 4.044 7.43856C4.22669 7.43856 4.40252 7.47281 4.57151 7.54132C4.7405 7.60983 4.88893 7.70802 5.01681 7.8359L6.52398 9.34307L10.9907 4.86951C11.1186 4.74163 11.267 4.64344 11.436 4.57493C11.605 4.50642 11.7808 4.47217 11.9635 4.47217Z" fill="current"/>
</svg>
