<svg width="21" height="21" viewBox="0 0 21 21" fill="none" xmlns="http://www.w3.org/2000/svg">
<g clip-path="url(#clip0_3879_4135)">
<circle cx="10.5667" cy="10.2156" r="8.33333" fill="white"/>
<path fill-rule="evenodd" clip-rule="evenodd" d="M10.5667 18.5489C15.1691 18.5489 18.9001 14.818 18.9001 10.2156C18.9001 5.61322 15.1691 1.88226 10.5667 1.88226C5.96436 1.88226 2.2334 5.61322 2.2334 10.2156C2.2334 14.818 5.96436 18.5489 10.5667 18.5489ZM8.26805 6.75296C7.94664 6.43154 7.42551 6.43154 7.10409 6.75296C6.78267 7.07438 6.78267 7.5955 7.10409 7.91692L9.40277 10.2156L7.10409 12.5143C6.78267 12.8357 6.78267 13.3568 7.10409 13.6782C7.42551 13.9997 7.94664 13.9997 8.26805 13.6782L10.5667 11.3796L12.8654 13.6782C13.1868 13.9997 13.708 13.9997 14.0294 13.6782C14.3508 13.3568 14.3508 12.8357 14.0294 12.5143L11.7307 10.2156L14.0294 7.91692C14.3508 7.5955 14.3508 7.07438 14.0294 6.75296C13.708 6.43154 13.1868 6.43154 12.8654 6.75296L10.5667 9.05164L8.26805 6.75296Z" fill="#CACDD2"/>
</g>
<defs>
<clipPath id="clip0_3879_4135">
<rect width="16.6667" height="16.6667" fill="white" transform="translate(2.2334 1.88226)"/>
</clipPath>
</defs>
</svg>
