<svg width="24" height="25" viewBox="0 0 24 25" fill="none" xmlns="http://www.w3.org/2000/svg">
<g clip-path="url(#clip0_955_23174)">
<circle cx="12" cy="12.5" r="10" fill="white"/>
<path fill-rule="evenodd" clip-rule="evenodd" d="M12 22.5C17.5228 22.5 22 18.0228 22 12.5C22 6.97715 17.5228 2.5 12 2.5C6.47715 2.5 2 6.97715 2 12.5C2 18.0228 6.47715 22.5 12 22.5ZM9.24159 8.34483C8.85588 7.95913 8.23054 7.95913 7.84483 8.34483C7.45913 8.73054 7.45913 9.35588 7.84483 9.74159L10.6032 12.5L7.84483 15.2584C7.45913 15.6441 7.45913 16.2695 7.84483 16.6552C8.23054 17.0409 8.85588 17.0409 9.24159 16.6552L12 13.8968L14.7584 16.6552C15.1441 17.0409 15.7695 17.0409 16.1552 16.6552C16.5409 16.2695 16.5409 15.6441 16.1552 15.2584L13.3968 12.5L16.1552 9.74159C16.5409 9.35588 16.5409 8.73054 16.1552 8.34483C15.7695 7.95913 15.1441 7.95913 14.7584 8.34483L12 11.1032L9.24159 8.34483Z" fill="#A6AEB7"/>
</g>
<defs>
<clipPath id="clip0_955_23174">
<rect width="20" height="20" fill="white" transform="translate(2 2.5)"/>
</clipPath>
</defs>
</svg>
