<svg width="24" height="24" viewBox="0 0 24 24" fill="none" xmlns="http://www.w3.org/2000/svg">
<path fill-rule="evenodd" clip-rule="evenodd" d="M15.444 3.68515C13.7994 3.00396 11.9898 2.82573 10.244 3.173C8.49817 3.52026 6.89453 4.37743 5.63586 5.6361C4.37719 6.89477 3.52002 8.49842 3.17275 10.2442C2.82549 11.9901 3.00372 13.7997 3.6849 15.4442C4.36609 17.0887 5.51964 18.4943 6.99969 19.4833C8.47973 20.4722 10.2198 21 11.9998 21C13.3912 21 14.712 20.6843 15.8908 20.1177L20.1174 20.9851C20.3593 21.0347 20.61 20.9595 20.7846 20.7849C20.9592 20.6102 21.0344 20.3596 20.9848 20.1177L20.1174 15.891C20.684 14.7124 20.9998 13.3923 20.9998 12.0001C20.9998 10.22 20.472 8.47997 19.483 6.99993C18.4941 5.51989 17.0885 4.36634 15.444 3.68515ZM10.5307 4.61415C11.9915 4.32358 13.5056 4.47271 14.8817 5.04268C16.2577 5.61266 17.4338 6.57787 18.2613 7.81628C19.0888 9.05468 19.5304 10.5106 19.5304 12.0001C19.5304 13.2468 19.2291 14.4196 18.6943 15.4523C18.617 15.6017 18.5932 15.7731 18.627 15.9378L19.3215 19.3217L15.9376 18.6273C15.7728 18.5935 15.6015 18.6172 15.4521 18.6946C14.4194 19.2293 13.2456 19.5307 11.9998 19.5307C10.5104 19.5307 9.05443 19.089 7.81603 18.2615C6.57763 17.4341 5.61241 16.2579 5.04244 14.8819C4.47247 13.5059 4.32334 11.9917 4.6139 10.5309C4.90447 9.07012 5.6217 7.72829 6.67487 6.67511C7.72804 5.62194 9.06987 4.90472 10.5307 4.61415Z" fill="#818796"/>
</svg>
