<svg width="24" height="25" viewBox="0 0 24 25" fill="none" xmlns="http://www.w3.org/2000/svg">
<path d="M14.28 2.5C14.6998 2.50011 15.1088 2.63229 15.4493 2.87781C15.7898 3.12333 16.0444 3.46975 16.177 3.868L16.72 5.5H20C20.2652 5.5 20.5196 5.60536 20.7071 5.79289C20.8946 5.98043 21 6.23478 21 6.5C21 6.76522 20.8946 7.01957 20.7071 7.20711C20.5196 7.39464 20.2652 7.5 20 7.5L19.997 7.571L19.13 19.714C19.0759 20.4706 18.7372 21.1786 18.182 21.6956C17.6269 22.2125 16.8965 22.4999 16.138 22.5H7.862C7.10346 22.4999 6.37311 22.2125 5.81797 21.6956C5.26283 21.1786 4.92411 20.4706 4.87 19.714L4.003 7.57C4.00119 7.54671 4.00019 7.52336 4 7.5C3.73478 7.5 3.48043 7.39464 3.29289 7.20711C3.10536 7.01957 3 6.76522 3 6.5C3 6.23478 3.10536 5.98043 3.29289 5.79289C3.48043 5.60536 3.73478 5.5 4 5.5H7.28L7.823 3.868C7.9557 3.46959 8.21043 3.12305 8.5511 2.87752C8.89176 2.63198 9.30107 2.4999 9.721 2.5H14.28ZM17.997 7.5H6.003L6.865 19.571C6.88295 19.8232 6.99577 20.0592 7.18076 20.2316C7.36574 20.404 7.60916 20.4999 7.862 20.5H16.138C16.3908 20.4999 16.6343 20.404 16.8192 20.2316C17.0042 20.0592 17.117 19.8232 17.135 19.571L17.997 7.5ZM10 10.5C10.2449 10.5 10.4813 10.59 10.6644 10.7527C10.8474 10.9155 10.9643 11.1397 10.993 11.383L11 11.5V16.5C10.9997 16.7549 10.9021 17 10.7272 17.1854C10.5522 17.3707 10.313 17.4822 10.0586 17.4972C9.80416 17.5121 9.55362 17.4293 9.35817 17.2657C9.16271 17.1021 9.0371 16.8701 9.007 16.617L9 16.5V11.5C9 11.2348 9.10536 10.9804 9.29289 10.7929C9.48043 10.6054 9.73478 10.5 10 10.5ZM14 10.5C14.2652 10.5 14.5196 10.6054 14.7071 10.7929C14.8946 10.9804 15 11.2348 15 11.5V16.5C15 16.7652 14.8946 17.0196 14.7071 17.2071C14.5196 17.3946 14.2652 17.5 14 17.5C13.7348 17.5 13.4804 17.3946 13.2929 17.2071C13.1054 17.0196 13 16.7652 13 16.5V11.5C13 11.2348 13.1054 10.9804 13.2929 10.7929C13.4804 10.6054 13.7348 10.5 14 10.5ZM14.28 4.5H9.72L9.387 5.5H14.613L14.28 4.5Z" fill="#121212"/>
</svg>
