<svg width="24" height="25" viewBox="0 0 24 25" fill="none" xmlns="http://www.w3.org/2000/svg">
<path d="M10 4.5H7.2C6.08 4.5 5.52 4.5 5.092 4.718C4.71565 4.90969 4.40969 5.21565 4.218 5.592C4 6.02 4 6.58 4 7.7V17.3C4 18.42 4 18.98 4.218 19.408C4.40974 19.7843 4.71569 20.0903 5.092 20.282C5.519 20.5 6.079 20.5 7.197 20.5H16.803C17.921 20.5 18.48 20.5 18.907 20.282C19.284 20.09 19.59 19.784 19.782 19.408C20 18.98 20 18.421 20 17.303V14.5M16 5.5L10 11.5V14.5H13L19 8.5M16 5.5L19 2.5L22 5.5L19 8.5M16 5.5L19 8.5" stroke="#121212" stroke-width="2" stroke-linecap="round" stroke-linejoin="round"/>
</svg>
