<svg width="16" height="17" viewBox="0 0 16 17" fill="none" xmlns="http://www.w3.org/2000/svg">
<path d="M12.7176 3.1665H10.2563C10.0931 3.1665 9.93664 3.23133 9.82125 3.34672C9.70585 3.46212 9.64103 3.61862 9.64103 3.78181C9.64103 3.945 9.70585 4.10151 9.82125 4.2169C9.93664 4.33229 10.0931 4.39712 10.2563 4.39712H11.2306L9.55283 6.07589C8.68065 5.42406 7.59396 5.12676 6.51142 5.2438C5.42889 5.36084 4.43085 5.88354 3.71814 6.70672C3.00543 7.52989 2.63093 8.59246 2.67001 9.6806C2.70909 10.7687 3.15885 11.8017 3.92878 12.5716C4.69871 13.3416 5.73167 13.7913 6.81981 13.8304C7.90795 13.8695 8.97051 13.495 9.79369 12.7823C10.6169 12.0696 11.1396 11.0715 11.2566 9.98899C11.3736 8.90645 11.0763 7.81976 10.4245 6.94758L12.1023 5.26881V6.24305C12.1023 6.40624 12.1671 6.56274 12.2825 6.67814C12.3979 6.79353 12.5544 6.85836 12.7176 6.85836C12.8808 6.85836 13.0373 6.79353 13.1527 6.67814C13.2681 6.56274 13.3329 6.40624 13.3329 6.24305V3.78181C13.3329 3.61862 13.2681 3.46212 13.1527 3.34672C13.0373 3.23133 12.8808 3.1665 12.7176 3.1665ZM9.14929 11.7019C8.71898 12.132 8.17079 12.4249 7.57403 12.5435C6.97728 12.6621 6.35875 12.6011 5.79666 12.3682C5.23457 12.1353 4.75415 11.741 4.41615 11.2351C4.07815 10.7292 3.89774 10.1344 3.89774 9.52597C3.89774 8.91754 4.07815 8.32278 4.41615 7.81687C4.75415 7.31096 5.23457 6.91663 5.79666 6.68374C6.35875 6.45085 6.97728 6.38985 7.57403 6.50846C8.17079 6.62706 8.71898 6.91995 9.14929 7.35009C9.72527 7.92775 10.0487 8.71022 10.0487 9.52597C10.0487 10.3417 9.72527 11.1242 9.14929 11.7019Z" fill="#4183FE"/>
</svg>
