<svg width="16" height="17" viewBox="0 0 16 17" fill="none" xmlns="http://www.w3.org/2000/svg">
<path d="M12.1998 6.70028C12.1998 5.89523 11.9685 5.10711 11.5334 4.4298C11.0983 3.75248 10.4776 3.21449 9.74539 2.87991C9.01317 2.54532 8.2002 2.42823 7.40331 2.54259C6.60643 2.65695 5.8592 2.99793 5.25061 3.52493C4.64202 4.05193 4.19772 4.74273 3.97062 5.51509C3.74352 6.28744 3.74318 7.10879 3.96966 7.88133C4.19613 8.65387 4.63986 9.34504 5.24802 9.87254C5.85618 10.4 6.60313 10.7416 7.39992 10.8566V11.7001H5.99997C5.84085 11.7001 5.68824 11.7633 5.57572 11.8758C5.4632 11.9883 5.39999 12.141 5.39999 12.3001C5.39999 12.4592 5.4632 12.6118 5.57572 12.7243C5.68824 12.8368 5.84085 12.9001 5.99997 12.9001H7.39992V13.9C7.39992 14.0591 7.46313 14.2118 7.57565 14.3243C7.68817 14.4368 7.84078 14.5 7.9999 14.5C8.15903 14.5 8.31163 14.4368 8.42415 14.3243C8.53667 14.2118 8.59988 14.0591 8.59988 13.9V12.9001H9.99983C10.159 12.9001 10.3116 12.8368 10.4241 12.7243C10.5366 12.6118 10.5998 12.4592 10.5998 12.3001C10.5998 12.141 10.5366 11.9883 10.4241 11.8758C10.3116 11.7633 10.159 11.7001 9.99983 11.7001H8.59988V10.8566C9.59885 10.7112 10.5122 10.2113 11.1731 9.4482C11.834 8.68512 12.1984 7.70978 12.1998 6.70028ZM5.00001 6.70028C5.00001 6.10695 5.17595 5.52695 5.50558 5.03362C5.83521 4.54029 6.30373 4.15579 6.85189 3.92874C7.40005 3.70168 8.00323 3.64227 8.58515 3.75802C9.16707 3.87378 9.7016 4.15949 10.1211 4.57903C10.5407 4.99857 10.8264 5.5331 10.9422 6.11503C11.0579 6.69695 10.9985 7.30013 10.7714 7.84829C10.5444 8.39644 10.1599 8.86496 9.66655 9.1946C9.17322 9.52423 8.59322 9.70017 7.9999 9.70017C7.20456 9.69924 6.44207 9.38289 5.87968 8.8205C5.31729 8.25811 5.00093 7.49561 5.00001 6.70028Z" fill="#F87AA9"/>
</svg>
