<svg width="24" height="24" viewBox="0 0 24 24" fill="none" xmlns="http://www.w3.org/2000/svg">
<path fill-rule="evenodd" clip-rule="evenodd" d="M12 6.08987C10.6764 4.30366 8.57022 3.51615 6.63589 3.79493C5.45691 3.96485 4.3364 4.53242 3.51281 5.51148C2.68692 6.49328 2.20001 7.83996 2.20001 9.5C2.20001 12.8734 4.69933 15.8309 6.96852 17.8479C8.12877 18.8793 9.2853 19.7142 10.15 20.2906C10.5831 20.5794 10.945 20.8046 11.2001 20.9585C11.3277 21.0354 11.4287 21.0946 11.4987 21.1351C11.5337 21.1553 11.561 21.1709 11.58 21.1816L11.6022 21.1941L11.6085 21.1976L11.6104 21.1987C11.6104 21.1987 11.6115 21.1993 12 20.5L11.6115 21.1993C11.8531 21.3336 12.1469 21.3336 12.3885 21.1993L12 20.5C12.3885 21.1993 12.3885 21.1993 12.3885 21.1993L12.3916 21.1976L12.3979 21.1941L12.4201 21.1816C12.439 21.1709 12.4663 21.1553 12.5013 21.1351C12.5713 21.0946 12.6723 21.0354 12.7999 20.9585C13.055 20.8046 13.4169 20.5794 13.85 20.2906C14.7147 19.7142 15.8713 18.8793 17.0315 17.8479C19.3007 15.8309 21.8 12.8734 21.8 9.5C21.8 7.83996 21.3131 6.49328 20.4872 5.51148C19.6636 4.53242 18.5431 3.96485 17.3641 3.79493C15.4298 3.51615 13.3236 4.30366 12 6.08987ZM12 19.5724C11.7643 19.4298 11.4331 19.2231 11.0375 18.9594C10.2147 18.4108 9.12126 17.6207 8.0315 16.6521C5.8007 14.6691 3.80001 12.1266 3.80001 9.5C3.80001 8.16004 4.1881 7.19422 4.73721 6.54145C5.28862 5.88595 6.04311 5.4969 6.86413 5.37857C8.51375 5.14082 10.4096 6.00223 11.264 8.00758C11.3897 8.30256 11.6794 8.494 12 8.494C12.3206 8.494 12.6103 8.30256 12.736 8.00758C13.5904 6.00223 15.4863 5.14082 17.1359 5.37857C17.9569 5.4969 18.7114 5.88595 19.2628 6.54145C19.8119 7.19422 20.2 8.16004 20.2 9.5C20.2 12.1266 18.1993 14.6691 15.9685 16.6521C14.8788 17.6207 13.7853 18.4108 12.9625 18.9594C12.5669 19.2231 12.2357 19.4298 12 19.5724Z" fill="#818796"/>
</svg>
