<svg width="17" height="16" viewBox="0 0 17 16" fill="none" xmlns="http://www.w3.org/2000/svg">
<g clip-path="url(#clip0_6703_7096)">
<path fill-rule="evenodd" clip-rule="evenodd" d="M3.33818 4.78623C3.70595 4.40175 4.21453 4.15564 4.81754 4.10831C5.38086 4.0641 5.91349 4.22361 6.36106 4.53132C6.82788 4.85227 7.17329 5.3059 7.36602 5.75982C7.547 6.18608 7.64418 6.74444 7.39519 7.20194C7.12515 7.69812 6.58667 7.84092 6.14974 7.83774C5.81271 7.83529 5.45232 7.75166 5.10872 7.6015C4.78071 7.83399 4.4269 7.98243 4.08007 8.03048C3.62389 8.09369 3.11294 7.98292 2.79061 7.56334C2.47005 7.14608 2.49066 6.57559 2.59843 6.13723C2.71404 5.66699 2.96859 5.1726 3.33818 4.78623Z" fill="#A6AEB7"/>
<path d="M2.9414 4.26669C2.98516 4.82417 2.62707 5.45471 1.95929 5.50712C1.29151 5.55953 0.839437 4.99258 0.795681 4.4351C0.751925 3.87761 1.11001 3.24707 1.77779 3.19466C2.44557 3.14225 2.89765 3.7092 2.9414 4.26669Z" fill="#A6AEB7"/>
<path d="M4.61601 2.55975C4.65976 3.11723 4.30167 3.74777 3.6339 3.80019C2.96612 3.8526 2.51404 3.28565 2.47028 2.72816C2.42653 2.17067 2.78462 1.54014 3.4524 1.48773C4.12018 1.43531 4.57225 2.00226 4.61601 2.55975Z" fill="#A6AEB7"/>
<path d="M6.91923 2.37897C6.96299 2.93646 6.6049 3.567 5.93712 3.61941C5.26934 3.67182 4.81727 3.10487 4.77351 2.54739C4.72975 1.9899 5.08784 1.35936 5.75562 1.30695C6.4234 1.25454 6.87548 1.82149 6.91923 2.37897Z" fill="#A6AEB7"/>
<path d="M8.86526 3.80174C8.90902 4.35922 8.55093 4.98976 7.88315 5.04217C7.21537 5.09459 6.7633 4.52764 6.71954 3.97015C6.67578 3.41266 7.03387 2.78213 7.70165 2.72971C8.36943 2.6773 8.82151 3.24425 8.86526 3.80174Z" fill="#A6AEB7"/>
<path fill-rule="evenodd" clip-rule="evenodd" d="M9.36721 10.5775C9.75523 10.2134 10.2764 9.99519 10.8811 9.98054C11.4459 9.96685 11.9692 10.1549 12.3995 10.4864C12.8482 10.8321 13.1686 11.3037 13.3365 11.7674C13.4942 12.2028 13.561 12.7656 13.2877 13.209C12.9912 13.6899 12.4458 13.8033 12.0097 13.7765C11.6733 13.7559 11.3179 13.6529 10.9829 13.4844C10.6428 13.6988 10.2815 13.8279 9.93261 13.8571C9.47367 13.8956 8.96946 13.7573 8.67029 13.3209C8.37276 12.8869 8.42418 12.3184 8.5555 11.8865C8.69637 11.4232 8.97727 10.9433 9.36721 10.5775Z" fill="#A6AEB7"/>
<path d="M8.9991 10.0372C9.01265 10.5963 8.621 11.2065 7.95136 11.2228C7.28172 11.239 6.86096 10.6484 6.84741 10.0894C6.83386 9.53036 7.22552 8.92011 7.89515 8.90387C8.56479 8.88764 8.98555 9.47821 8.9991 10.0372Z" fill="#A6AEB7"/>
<path d="M10.7635 8.42334C10.7771 8.98238 10.3854 9.59263 9.7158 9.60886C9.04617 9.6251 8.6254 9.03453 8.61185 8.4755C8.5983 7.91646 8.98996 7.30621 9.6596 7.28997C10.3292 7.27374 10.75 7.86431 10.7635 8.42334Z" fill="#A6AEB7"/>
<path d="M13.0732 8.36736C13.0867 8.9264 12.6951 9.53665 12.0254 9.55288C11.3558 9.56911 10.935 8.97855 10.9215 8.41951C10.9079 7.86048 11.2996 7.25022 11.9692 7.23399C12.6389 7.21776 13.0596 7.80832 13.0732 8.36736Z" fill="#A6AEB7"/>
<path d="M14.9394 9.89326C14.953 10.4523 14.5613 11.0625 13.8917 11.0788C13.2221 11.095 12.8013 10.5044 12.7877 9.94541C12.7742 9.38637 13.1659 8.77612 13.8355 8.75989C14.5051 8.74366 14.9259 9.33422 14.9394 9.89326Z" fill="#A6AEB7"/>
</g>
<defs>
<clipPath id="clip0_6703_7096">
<rect width="16" height="16" fill="white" transform="translate(0.5)"/>
</clipPath>
</defs>
</svg>
