<svg width="21" height="20" viewBox="0 0 21 20" fill="none" xmlns="http://www.w3.org/2000/svg">
<path d="M17.1021 2.49747C16.9015 2.51206 16.7045 2.55913 16.519 2.63684H16.5165C16.3384 2.70747 15.4915 3.06372 14.204 3.60372L9.59024 5.54684C6.27961 6.94059 3.02524 8.31309 3.02524 8.31309L3.06399 8.29809C3.06399 8.29809 2.83961 8.37184 2.60524 8.53247C2.46044 8.6246 2.33585 8.74516 2.23899 8.88684C2.12399 9.05559 2.03149 9.31372 2.06586 9.58059C2.12211 10.0318 2.41461 10.3025 2.62461 10.4518C2.83711 10.6031 3.03961 10.6737 3.03961 10.6737H3.04461L6.09649 11.7018C6.23336 12.1412 7.02649 14.7487 7.21711 15.3493C7.32961 15.7081 7.43899 15.9325 7.57586 16.1037C7.64211 16.1912 7.71961 16.2643 7.81274 16.3231C7.86115 16.3513 7.91277 16.3735 7.96649 16.3893L7.93524 16.3818C7.94461 16.3843 7.95211 16.3918 7.95899 16.3943C7.98399 16.4012 8.00086 16.4037 8.03274 16.4087C8.51586 16.555 8.90399 16.255 8.90399 16.255L8.92586 16.2375L10.7277 14.5968L13.7477 16.9137L13.8165 16.9431C14.4459 17.2193 15.0834 17.0656 15.4202 16.7943C15.7596 16.5212 15.8915 16.1718 15.8915 16.1718L15.9134 16.1156L18.2471 4.15997C18.3134 3.86497 18.3302 3.58872 18.2571 3.32059C18.1817 3.04923 18.0076 2.81585 17.769 2.66622C17.5686 2.54441 17.3363 2.48562 17.1021 2.49747ZM17.039 3.77872C17.0365 3.81809 17.044 3.81372 17.0265 3.88934V3.89622L14.7146 15.7275C14.7046 15.7443 14.6877 15.7812 14.6415 15.8181C14.5927 15.8568 14.554 15.8812 14.3509 15.8006L10.6571 12.9687L8.42586 15.0025L8.89461 12.0087L14.9296 6.38372C15.1784 6.15247 15.0952 6.10372 15.0952 6.10372C15.1127 5.81997 14.7196 6.02059 14.7196 6.02059L7.10961 10.735L7.10711 10.7225L3.45961 9.49434V9.49184L3.45024 9.48996C3.45663 9.48784 3.46289 9.48534 3.46899 9.48247L3.48899 9.47247L3.50836 9.46559C3.50836 9.46559 6.76524 8.09309 10.0759 6.69934C11.7334 6.00122 13.4034 5.29809 14.6877 4.75559C15.4495 4.43497 16.212 4.11622 16.9752 3.79934C17.0265 3.77934 17.0021 3.77872 17.039 3.77872Z" fill="white"/>
</svg>
