<svg width="24" height="24" viewBox="0 0 24 24" fill="none" xmlns="http://www.w3.org/2000/svg">
<path d="M20.6666 10H13.9999V3.33337C13.9999 2.80294 13.7892 2.29423 13.4141 1.91916C13.0391 1.54409 12.5304 1.33337 11.9999 1.33337C11.4695 1.33337 10.9608 1.54409 10.5857 1.91916C10.2106 2.29423 9.99992 2.80294 9.99992 3.33337V10H3.33325C2.80282 10 2.29411 10.2108 1.91904 10.5858C1.54397 10.9609 1.33325 11.4696 1.33325 12C1.33325 12.5305 1.54397 13.0392 1.91904 13.4143C2.29411 13.7893 2.80282 14 3.33325 14H9.99992V20.6667C9.99992 21.1971 10.2106 21.7058 10.5857 22.0809C10.9608 22.456 11.4695 22.6667 11.9999 22.6667C12.5304 22.6667 13.0391 22.456 13.4141 22.0809C13.7892 21.7058 13.9999 21.1971 13.9999 20.6667V14H20.6666C21.197 14 21.7057 13.7893 22.0808 13.4143C22.4559 13.0392 22.6666 12.5305 22.6666 12C22.6666 11.4696 22.4559 10.9609 22.0808 10.5858C21.7057 10.2108 21.197 10 20.6666 10Z" fill="white"/>
</svg>
