<svg width="17" height="17" viewBox="0 0 17 17" fill="none" xmlns="http://www.w3.org/2000/svg">
<path d="M8.83431 3.2915C7.95025 3.2915 7.10241 3.64269 6.47729 4.26781C5.85217 4.89294 5.50098 5.74078 5.50098 6.62484C5.50098 6.80165 5.57121 6.97122 5.69624 7.09624C5.82126 7.22127 5.99083 7.2915 6.16764 7.2915C6.34445 7.2915 6.51402 7.22127 6.63905 7.09624C6.76407 6.97122 6.83431 6.80165 6.83431 6.62484C6.83431 5.5195 7.72898 4.62484 8.83431 4.62484C9.93964 4.62484 10.8343 5.5195 10.8343 6.62484C10.8343 7.16884 10.7016 7.4875 10.5423 7.71084C10.3676 7.95417 10.1256 8.13617 9.79031 8.3675L9.71298 8.4195C9.41498 8.6235 9.03098 8.8855 8.73364 9.25084C8.38231 9.68284 8.16764 10.2288 8.16764 10.9582V11.2915C8.16764 11.4683 8.23788 11.6379 8.36291 11.7629C8.48793 11.8879 8.6575 11.9582 8.83431 11.9582C9.01112 11.9582 9.18069 11.8879 9.30571 11.7629C9.43074 11.6379 9.50098 11.4683 9.50098 11.2915V10.9582C9.50098 10.5208 9.61964 10.2755 9.76764 10.0922C9.93898 9.88284 10.1696 9.72417 10.5103 9.49017L10.5456 9.4655C10.8763 9.23884 11.301 8.9415 11.6256 8.48684C11.9676 8.01217 12.1676 7.4135 12.1676 6.62484C12.1676 5.74078 11.8165 4.89294 11.1913 4.26781C10.5662 3.64269 9.71836 3.2915 8.83431 3.2915ZM8.83431 14.7915C9.05532 14.7915 9.26729 14.7037 9.42357 14.5474C9.57985 14.3911 9.66764 14.1792 9.66764 13.9582C9.66764 13.7372 9.57985 13.5252 9.42357 13.3689C9.26729 13.2126 9.05532 13.1248 8.83431 13.1248C8.6133 13.1248 8.40133 13.2126 8.24505 13.3689C8.08877 13.5252 8.00098 13.7372 8.00098 13.9582C8.00098 14.1792 8.08877 14.3911 8.24505 14.5474C8.40133 14.7037 8.6133 14.7915 8.83431 14.7915Z" fill="#A6AEB7"/>
</svg>
