<svg width="24" height="25" viewBox="0 0 24 25" fill="none" xmlns="http://www.w3.org/2000/svg">
<path d="M9.99961 3C11.3976 2.99994 12.7678 3.39061 13.9555 4.12792C15.1432 4.86523 16.1012 5.91983 16.7214 7.1727C17.3416 8.42558 17.5993 9.82686 17.4654 11.2184C17.3315 12.61 16.8113 13.9364 15.9636 15.048L20.7066 19.793C20.886 19.973 20.9901 20.2144 20.9978 20.4684C21.0056 20.7223 20.9164 20.9697 20.7484 21.1603C20.5803 21.3508 20.3461 21.4703 20.0931 21.4944C19.8402 21.5185 19.5876 21.4454 19.3866 21.29L19.2926 21.207L14.5476 16.464C13.6006 17.1861 12.4953 17.6723 11.323 17.8824C10.1508 18.0925 8.94543 18.0204 7.80661 17.6721C6.66778 17.3238 5.62826 16.7094 4.77406 15.8795C3.91986 15.0497 3.27555 14.0285 2.89443 12.9002C2.51332 11.7719 2.40636 10.5691 2.5824 9.39131C2.75844 8.2135 3.21243 7.09454 3.9068 6.12703C4.60117 5.15951 5.51595 4.37126 6.57545 3.82749C7.63495 3.28372 8.80871 3.00006 9.99961 3ZM9.99961 5C8.54091 5 7.14197 5.57946 6.11052 6.61091C5.07907 7.64236 4.49961 9.04131 4.49961 10.5C4.49961 11.9587 5.07907 13.3576 6.11052 14.3891C7.14197 15.4205 8.54091 16 9.99961 16C11.4583 16 12.8572 15.4205 13.8887 14.3891C14.9201 13.3576 15.4996 11.9587 15.4996 10.5C15.4996 9.04131 14.9201 7.64236 13.8887 6.61091C12.8572 5.57946 11.4583 5 9.99961 5Z" fill="#121212"/>
</svg>
