<svg width="24" height="25" viewBox="0 0 24 25" fill="none" xmlns="http://www.w3.org/2000/svg">
<path d="M22.2227 15.3195L20.601 13.933C20.6778 13.4626 20.7174 12.9823 20.7174 12.502C20.7174 12.0217 20.6778 11.5414 20.601 11.071L22.2227 9.68452C22.345 9.57981 22.4326 9.44034 22.4737 9.28467C22.5148 9.129 22.5076 8.96449 22.453 8.81303L22.4307 8.74866C21.9842 7.5009 21.3157 6.34422 20.4574 5.33449L20.4129 5.28249C20.3088 5.16007 20.17 5.07206 20.0149 5.03008C19.8597 4.98809 19.6955 4.99409 19.5439 5.04729L17.531 5.7628C16.7883 5.15375 15.9589 4.67344 15.0626 4.33673L14.6739 2.23227C14.6446 2.07392 14.5678 1.92825 14.4537 1.81459C14.3396 1.70094 14.1936 1.62469 14.0351 1.59598L13.9683 1.5836C12.6784 1.35088 11.3216 1.35088 10.0317 1.5836L9.96487 1.59598C9.80641 1.62469 9.66043 1.70094 9.54634 1.81459C9.43224 1.92825 9.35543 2.07392 9.3261 2.23227L8.93492 4.34663C8.04582 4.68341 7.21785 5.16347 6.48385 5.76776L4.45615 5.04729C4.30454 4.99367 4.14021 4.98745 3.98498 5.02946C3.82976 5.07148 3.691 5.15973 3.58713 5.28249L3.54256 5.33449C2.6853 6.34493 2.0169 7.50142 1.56933 8.74866L1.54705 8.81303C1.43563 9.12251 1.52724 9.46912 1.7773 9.68452L3.41877 11.0858C3.34202 11.5513 3.30489 12.0267 3.30489 12.4995C3.30489 12.9749 3.34202 13.4503 3.41877 13.9132L1.7773 15.3146C1.65498 15.4193 1.56744 15.5587 1.52631 15.7144C1.48518 15.8701 1.49241 16.0346 1.54705 16.186L1.56933 16.2504C2.01745 17.4982 2.68098 18.6495 3.54256 19.6646L3.58713 19.7166C3.69125 19.839 3.83002 19.927 3.98515 19.969C4.14028 20.011 4.30449 20.005 4.45615 19.9518L6.48385 19.2313C7.22165 19.8379 8.0461 20.3182 8.93492 20.6524L9.3261 22.7668C9.35543 22.9252 9.43224 23.0708 9.54634 23.1845C9.66043 23.2981 9.80641 23.3744 9.96487 23.4031L10.0317 23.4155C11.3335 23.6494 12.6665 23.6494 13.9683 23.4155L14.0351 23.4031C14.1936 23.3744 14.3396 23.2981 14.4537 23.1845C14.5678 23.0708 14.6446 22.9252 14.6739 22.7668L15.0626 20.6623C15.9585 20.3265 16.7926 19.8446 17.531 19.2363L19.5439 19.9518C19.6955 20.0054 19.8598 20.0116 20.015 19.9696C20.1702 19.9276 20.309 19.8393 20.4129 19.7166L20.4574 19.6646C21.319 18.647 21.9825 17.4982 22.4307 16.2504L22.453 16.186C22.5644 15.8815 22.4728 15.5349 22.2227 15.3195ZM18.8432 11.3631C18.9051 11.737 18.9373 12.1207 18.9373 12.5045C18.9373 12.8882 18.9051 13.272 18.8432 13.6458L18.6798 14.6387L20.5292 16.2207C20.2489 16.8666 19.895 17.4781 19.4745 18.0429L17.177 17.2284L16.3995 17.8671C15.8078 18.3524 15.1493 18.7337 14.4362 19.0011L13.4929 19.3551L13.0498 21.7567C12.3505 21.8359 11.6445 21.8359 10.9453 21.7567L10.5021 19.3502L9.56626 18.9912C8.86065 18.7238 8.20455 18.3425 7.61778 17.8597L6.84037 17.2185L4.52795 18.0404C4.10705 17.4735 3.75549 16.862 3.47324 16.2182L5.34249 14.6213L5.18156 13.631C5.12214 13.2621 5.08996 12.8808 5.08996 12.5045C5.08996 12.1257 5.11967 11.7469 5.18156 11.378L5.34249 10.3877L3.47324 8.79074C3.75301 8.14455 4.10705 7.5355 4.52795 6.96853L6.84037 7.79051L7.61778 7.14927C8.20455 6.66648 8.86065 6.2852 9.56626 6.01782L10.5046 5.66377L10.9478 3.25726C11.6435 3.17804 12.354 3.17804 13.0522 3.25726L13.4954 5.65882L14.4387 6.01286C15.1493 6.28025 15.8103 6.66153 16.402 7.14679L17.1794 7.78556L19.477 6.97101C19.8979 7.53797 20.2495 8.1495 20.5317 8.79322L18.6823 10.3753L18.8432 11.3631ZM12.0025 7.89945C9.59597 7.89945 7.64502 9.8504 7.64502 12.2569C7.64502 14.6634 9.59597 16.6144 12.0025 16.6144C14.409 16.6144 16.3599 14.6634 16.3599 12.2569C16.3599 9.8504 14.409 7.89945 12.0025 7.89945ZM13.9633 14.2178C13.7061 14.4757 13.4005 14.6802 13.064 14.8196C12.7275 14.959 12.3667 15.0304 12.0025 15.0298C11.2622 15.0298 10.5665 14.7402 10.0416 14.2178C9.78369 13.9606 9.57917 13.6549 9.4398 13.3184C9.30043 12.9819 9.22898 12.6211 9.22955 12.2569C9.22955 11.5166 9.51922 10.8209 10.0416 10.296C10.5665 9.77117 11.2622 9.48398 12.0025 9.48398C12.7427 9.48398 13.4385 9.77117 13.9633 10.296C14.2213 10.5532 14.4258 10.8589 14.5652 11.1954C14.7045 11.5319 14.776 11.8927 14.7754 12.2569C14.7754 12.9972 14.4857 13.6929 13.9633 14.2178Z" fill="#121212"/>
</svg>
