<svg width="16" height="16" viewBox="0 0 16 16" fill="none" xmlns="http://www.w3.org/2000/svg">
<path d="M5.91432 7.08725C5.91432 6.51443 6.16197 5.99745 6.55954 5.63064C6.28816 5.06166 5.69229 4.66667 5.00087 4.66667C4.05368 4.66667 3.28583 5.40792 3.28583 6.3223C3.28583 6.81843 3.51188 7.26359 3.86999 7.56703C3.85281 7.57419 3.8357 7.58151 3.81863 7.589C3.44627 7.75244 3.10793 7.992 2.82294 8.294C2.53795 8.596 2.31188 8.95453 2.15764 9.34911C2.03808 9.65498 2.00769 9.97787 2.00007 10.3065C1.9964 10.4651 2.13076 10.5937 2.29506 10.5937H4.66084C4.68642 10.3935 4.7312 10.1891 4.81008 9.98732C4.98037 9.55169 5.23073 9.15382 5.54841 8.8172C5.76576 8.58687 6.01183 8.3882 6.28001 8.22667C6.04951 7.9027 5.91432 7.51011 5.91432 7.08725Z" fill="white"/>
<path d="M12.7161 6.3223C12.7161 6.8208 12.4879 7.26783 12.1268 7.57136C12.1405 7.57713 12.1542 7.58301 12.1678 7.589C12.5402 7.75244 12.8785 7.992 13.1635 8.294C13.4485 8.596 13.6746 8.95453 13.8288 9.34911C13.9484 9.65499 13.988 9.97789 13.9998 10.3066C14.0055 10.4651 13.8711 10.5937 13.7068 10.5937H11.3323C11.3033 10.3924 11.2556 10.1884 11.1769 9.98732C11.0067 9.55169 10.7563 9.15382 10.4386 8.8172C10.2242 8.58997 9.9818 8.39355 9.71782 8.2332C9.95115 7.90798 10.0882 7.51296 10.0882 7.08725C10.0882 6.51425 9.84036 5.99712 9.44257 5.63029C9.71403 5.06149 10.3098 4.66667 11.0011 4.66667C11.9483 4.66667 12.7161 5.40792 12.7161 6.3223Z" fill="white"/>
<path d="M9.12603 8.311C9.4871 8.00747 9.71532 7.56043 9.71532 7.06194C9.71532 6.14756 8.94747 5.40631 8.00028 5.40631C7.05308 5.40631 6.28523 6.14756 6.28523 7.06194C6.28523 7.55807 6.51129 8.00323 6.8694 8.30667C6.85222 8.31382 6.8351 8.32115 6.81804 8.32864C6.44568 8.49208 6.10734 8.73164 5.82235 9.03364C5.53735 9.33564 5.31128 9.69417 5.15705 10.0888C5.03749 10.3946 5.0071 10.7175 4.99948 11.0462C4.99581 11.2047 5.13017 11.3333 5.29447 11.3333H10.706C10.8703 11.3333 11.0047 11.2047 10.999 11.0462C10.9873 10.7175 10.9476 10.3946 10.828 10.0888C10.6738 9.69417 10.4477 9.33564 10.1627 9.03364C9.87774 8.73164 9.53941 8.49208 9.16704 8.32864C9.15341 8.32265 9.13973 8.31677 9.12603 8.311Z" fill="white"/>
</svg>
